# Blender v2.80 (sub 75) OBJ File: ''
# www.blender.org
mtllib Shelf.mtl
o Cube.002_Cube.003
v 0.214860 -0.016320 -0.000092
v 0.214860 -0.014856 -0.000092
v 0.214860 -0.020766 -0.100092
v 0.214860 -0.014856 -0.100092
v 0.197348 -0.016320 -0.000092
v 0.197348 -0.014856 -0.000092
v 0.197348 -0.020766 -0.100092
v 0.197348 -0.014856 -0.100092
v 0.214860 -0.020766 -0.094617
v 0.214860 -0.014856 -0.094617
v 0.197348 -0.020766 -0.094617
v 0.197348 -0.014856 -0.094617
v 0.197348 -0.084680 -0.100092
v 0.214860 -0.084680 -0.100092
v 0.197348 -0.084680 -0.098245
v 0.214860 -0.084680 -0.098245
v -0.197348 -0.016320 -0.000092
v -0.197348 -0.014856 -0.000092
v -0.197348 -0.020766 -0.100092
v -0.197348 -0.014856 -0.100092
v -0.214860 -0.016320 -0.000092
v -0.214860 -0.014856 -0.000092
v -0.214860 -0.020766 -0.100092
v -0.214860 -0.014856 -0.100092
v -0.197348 -0.020766 -0.094617
v -0.197348 -0.014856 -0.094617
v -0.214860 -0.020766 -0.094617
v -0.214860 -0.014856 -0.094617
v -0.214860 -0.084680 -0.100092
v -0.197348 -0.084680 -0.100092
v -0.214860 -0.084680 -0.098245
v -0.197348 -0.084680 -0.098245
v -0.250000 -0.015000 -0.100000
v -0.250000 0.015000 -0.100000
v 0.250000 -0.015000 -0.100000
v 0.250000 0.015000 -0.100000
v -0.250000 -0.015000 0.087276
v -0.250000 0.015000 0.087276
v 0.250000 -0.015000 0.087276
v 0.250000 0.015000 0.087276
v -0.250000 -0.015000 0.087276
v -0.250000 -0.001753 0.100000
v -0.250000 -0.013225 0.093638
v -0.250000 -0.008376 0.098295
v -0.250000 0.001753 0.100000
v -0.250000 0.015000 0.087276
v -0.250000 0.008376 0.098295
v -0.250000 0.013225 0.093638
v 0.250000 -0.001753 0.100000
v 0.250000 -0.015000 0.087276
v 0.250000 -0.008376 0.098295
v 0.250000 -0.013225 0.093638
v 0.250000 0.015000 0.087276
v 0.250000 0.001753 0.100000
v 0.250000 0.013225 0.093638
v 0.250000 0.008376 0.098295
vt 0.375000 0.125000
vt 0.375000 0.250000
vt 0.625000 0.250000
vt 0.625000 0.125000
vt 0.375000 0.500000
vt 0.625000 0.500000
vt 0.375000 0.625000
vt 0.375000 0.750000
vt 0.625000 0.750000
vt 0.625000 0.625000
vt 0.375000 1.000000
vt 0.625000 1.000000
vt 0.125000 0.625000
vt 0.125000 0.750000
vt 0.875000 0.750000
vt 0.875000 0.625000
vt 0.875000 0.500000
vt 0.375000 0.500000
vt 0.375000 0.625000
vt 0.375000 0.000000
vt 0.625000 0.000000
vt 0.000000 1.000000
vt 0.500000 1.000000
vt 0.500000 0.000000
vt 0.000000 0.000000
vt 0.375000 0.125000
vt 0.375000 0.250000
vt 0.125000 0.625000
vt 0.375000 0.125000
vt 0.375000 0.250000
vt 0.625000 0.250000
vt 0.625000 0.125000
vt 0.375000 0.500000
vt 0.625000 0.500000
vt 0.375000 0.625000
vt 0.375000 0.750000
vt 0.625000 0.750000
vt 0.625000 0.625000
vt 0.375000 1.000000
vt 0.625000 1.000000
vt 0.125000 0.625000
vt 0.125000 0.750000
vt 0.875000 0.750000
vt 0.875000 0.625000
vt 0.875000 0.500000
vt 0.375000 0.500000
vt 0.375000 0.625000
vt 0.375000 0.000000
vt 0.625000 0.000000
vt 0.500000 0.999999
vt 1.000000 0.999999
vt 1.000000 0.000000
vt 0.500000 0.000000
vt 0.375000 0.125000
vt 0.375000 0.250000
vt 0.125000 0.625000
vt 0.318889 0.500000
vt 0.318889 1.000000
vt 0.000000 1.000000
vt 0.000000 0.500000
vt 0.681111 0.500000
vt 0.340556 0.500000
vt 0.340556 0.000000
vt 0.681111 0.000000
vt 0.000000 0.000000
vt 0.000000 0.000000
vt 0.000000 0.000000
vt 0.000000 0.000000
vt 0.000000 0.000000
vt 0.000000 0.000000
vt 0.000000 0.000000
vt 0.000000 0.000000
vt 0.021667 0.000000
vt 0.021667 0.500000
vt 0.021667 0.500000
vt 0.010834 0.470421
vt 0.002903 0.389608
vt 0.000000 0.279216
vt 0.000000 0.220784
vt 0.002903 0.110392
vt 0.010833 0.029580
vt 0.021667 0.000000
vt 1.000000 0.000000
vt 1.000000 0.500000
vt 0.681111 0.500000
vt 0.681111 0.000000
vt 0.681111 1.000000
vt 0.681111 0.500000
vt 1.000000 0.500000
vt 1.000000 1.000000
vt 0.340556 0.000000
vt 0.340556 0.500000
vt 0.340556 0.779216
vt 0.340556 0.720784
vt 0.681111 0.720784
vt 0.681111 0.779216
vt 0.681111 1.000000
vt 0.340556 1.000000
vt 0.340556 0.970421
vt 0.681111 0.970421
vt 0.340556 0.889608
vt 0.681111 0.889608
vt 0.340556 0.500000
vt 0.681111 0.500000
vt 0.681111 0.529580
vt 0.340556 0.529580
vt 0.681111 0.610392
vt 0.340556 0.610392
vt 0.318889 0.500000
vt 0.329722 0.529580
vt 0.337653 0.610392
vt 0.340556 0.720784
vt 0.340556 0.779216
vt 0.337653 0.889608
vt 0.329722 0.970420
vt 0.318889 1.000000
vn 1.0000 0.0000 0.0000
vn 0.0000 0.0000 -1.0000
vn -1.0000 0.0000 0.0000
vn 0.0000 0.0000 1.0000
vn 0.0000 -0.9989 0.0470
vn 0.0000 1.0000 0.0000
vn 0.0000 -1.0000 0.0000
vn 0.0000 -0.0567 0.9984
vn 0.0000 -0.9632 0.2687
vn 0.0000 -0.6927 0.7212
vn 0.0000 -0.2493 0.9684
vn 0.0000 0.9632 0.2687
vn 0.0000 0.6927 0.7212
vn 0.0000 0.2493 0.9684
usemtl Metal
s off
f 9/1/1 3/2/1 4/3/1 10/4/1
f 3/2/2 7/5/2 8/6/2 4/3/2
f 11/7/3 5/8/3 6/9/3 12/10/3
f 5/8/4 1/11/4 2/12/4 6/9/4
f 9/13/5 1/14/5 5/8/5 11/7/5
f 12/10/6 6/9/6 2/15/6 10/16/6
f 8/6/6 12/10/6 10/16/6 4/17/6
f 7/5/3 13/18/3 15/19/3 11/7/3
f 7/5/3 11/7/3 12/10/3 8/6/3
f 1/20/1 9/1/1 10/4/1 2/21/1
f 14/22/7 16/23/7 15/24/7 13/25/7
f 9/1/1 16/26/1 14/27/1 3/2/1
f 11/7/8 15/19/8 16/28/8 9/13/8
f 3/2/2 14/27/2 13/18/2 7/5/2
f 25/29/1 19/30/1 20/31/1 26/32/1
f 19/30/2 23/33/2 24/34/2 20/31/2
f 27/35/3 21/36/3 22/37/3 28/38/3
f 21/36/4 17/39/4 18/40/4 22/37/4
f 25/41/5 17/42/5 21/36/5 27/35/5
f 28/38/6 22/37/6 18/43/6 26/44/6
f 24/34/6 28/38/6 26/44/6 20/45/6
f 23/33/3 29/46/3 31/47/3 27/35/3
f 23/33/3 27/35/3 28/38/3 24/34/3
f 17/48/1 25/29/1 26/32/1 18/49/1
f 30/50/7 32/51/7 31/52/7 29/53/7
f 25/29/1 32/54/1 30/55/1 19/30/1
f 27/35/8 31/47/8 32/56/8 25/41/8
f 19/30/2 30/55/2 29/46/2 23/33/2
usemtl Wood
f 37/57/3 38/58/3 34/59/3 33/60/3
f 33/61/2 34/62/2 36/63/2 35/64/2
f 37/65/4 39/66/4 50/67/4 41/68/4
f 40/69/4 38/70/4 46/71/4 53/72/4
f 39/73/1 40/74/1 53/75/1 55/76/1 56/77/1 54/78/1 49/79/1 51/80/1 52/81/1 50/82/1
f 36/83/6 34/84/6 38/85/6 40/86/6
f 33/87/7 35/88/7 39/89/7 37/90/7
f 35/91/1 36/92/1 40/74/1 39/73/1
f 49/93/4 54/94/4 45/95/4 42/96/4
f 41/97/9 50/98/9 52/99/9 43/100/9
f 43/100/10 52/99/10 51/101/10 44/102/10
f 44/102/11 51/101/11 49/93/11 42/96/11
f 53/103/12 46/104/12 48/105/12 55/106/12
f 55/106/13 48/105/13 47/107/13 56/108/13
f 56/108/14 47/107/14 45/95/14 54/94/14
f 41/109/3 43/110/3 44/111/3 42/112/3 45/113/3 47/114/3 48/115/3 46/116/3 38/58/3 37/57/3
